<?xml version="1.0" encoding="utf-8"?>
<!-- Generator: Adobe Illustrator 16.0.0, SVG Export Plug-In . SVG Version: 6.00 Build 0)  -->
<!DOCTYPE svg PUBLIC "-//W3C//DTD SVG 1.1//EN" "http://www.w3.org/Graphics/SVG/1.1/DTD/svg11.dtd">
<svg version="1.1" id="Layer_1" xmlns="http://www.w3.org/2000/svg" xmlns:xlink="http://www.w3.org/1999/xlink" x="0px" y="0px"
	 width="96px" height="96px" viewBox="0 0 96 96" enable-background="new 0 0 96 96" xml:space="preserve">
<title>find baggage</title>
<g>
	<path fill="#47B0EA" d="M24,14h48c5.523,0,10,4.477,10,10v60c0,5.523-4.477,10-10,10H24c-5.523,0-10-4.477-10-10V24
		C14,18.477,18.477,14,24,14z"/>
	<path fill="#B3B3B3" d="M36,6h24v8h4V4c0-1.104-0.896-2-2-2H34c-1.104,0-2,0.896-2,2v10h4V6z"/>
	<path fill="#3584B0" d="M34,32L34,32c1.104,0,2,0.896,2,2v40c0,1.104-0.896,2-2,2l0,0c-1.104,0-2-0.896-2-2V34
		C32,32.896,32.896,32,34,32z"/>
	<path fill="#3584B0" d="M48,32L48,32c1.104,0,2,0.896,2,2v40c0,1.104-0.896,2-2,2l0,0c-1.104,0-2-0.896-2-2V34
		C46,32.896,46.896,32,48,32z"/>
	<path fill="#3584B0" d="M62,32L62,32c1.104,0,2,0.896,2,2v40c0,1.104-0.896,2-2,2l0,0c-1.104,0-2-0.896-2-2V34
		C60,32.896,60.896,32,62,32z"/>
</g>
</svg>
