<svg xmlns="http://www.w3.org/2000/svg" viewBox="0 0 48 48" width="96" height="96"><title>b chart</title><g class="nc-icon-wrapper"><path fill="#335262" d="M46,43H2c-0.553,0-1-0.447-1-1s0.447-1,1-1h44c0.553,0,1,0.447,1,1S46.553,43,46,43z"/> <path fill="#BADEFC" d="M13,17H5c-0.553,0-1,0.447-1,1v18c0,0.553,0.447,1,1,1h8c0.553,0,1-0.447,1-1V18C14,17.447,13.553,17,13,17z "/> <path fill="#43A6DD" d="M28,5h-8c-0.553,0-1,0.447-1,1v30c0,0.553,0.447,1,1,1h8c0.553,0,1-0.447,1-1V6C29,5.447,28.553,5,28,5z"/> <path fill="#BADEFC" d="M43,25h-8c-0.553,0-1,0.447-1,1v10c0,0.553,0.447,1,1,1h8c0.553,0,1-0.447,1-1V26C44,25.447,43.553,25,43,25 z"/></g></svg>