<?xml version="1.0" encoding="utf-8"?>
<!-- Generator: Adobe Illustrator 16.0.0, SVG Export Plug-In . SVG Version: 6.00 Build 0)  -->
<!DOCTYPE svg PUBLIC "-//W3C//DTD SVG 1.1//EN" "http://www.w3.org/Graphics/SVG/1.1/DTD/svg11.dtd">
<svg version="1.1" id="Layer_1" xmlns="http://www.w3.org/2000/svg" xmlns:xlink="http://www.w3.org/1999/xlink" x="0px" y="0px"
	 width="128px" height="128px" viewBox="0 0 128 128" enable-background="new 0 0 128 128" xml:space="preserve">
<title>compass 04</title>
<g>
	
		<linearGradient id="SVGID_1_" gradientUnits="userSpaceOnUse" x1="147.2012" y1="712.6797" x2="147.2012" y2="840.6797" gradientTransform="matrix(1 0 0 1 -83.2002 -712.6797)">
		<stop  offset="0" style="stop-color:#F2BF24"/>
		<stop  offset="1" style="stop-color:#212121"/>
	</linearGradient>
	<path fill="url(#SVGID_1_)" d="M64,0C28.711,0,0,28.711,0,64c0,35.287,28.711,64,64,64c35.287,0,64-28.713,64-64
		C128,28.711,99.287,0,64,0z M66.783,122.295v-13.772c0-1.537-1.246-2.781-2.783-2.781c-1.536,0-2.783,1.244-2.783,2.781v13.771
		C31.221,120.871,7.129,96.779,5.706,66.784h13.772c1.537,0,2.783-1.246,2.783-2.783c0-1.535-1.246-2.783-2.783-2.783H5.706
		C7.129,31.22,31.221,7.129,61.217,5.706v13.772c0,1.535,1.247,2.782,2.783,2.782c1.537,0,2.783-1.247,2.783-2.782V5.706
		c29.992,1.423,54.087,25.514,55.511,55.511h-13.772c-1.537,0-2.779,1.248-2.779,2.783c0,1.537,1.242,2.783,2.779,2.783h13.772
		C120.87,96.779,96.775,120.871,66.783,122.295z"/>
</g>
<g>
	<path fill="#F2BF24" d="M64,73.074c-2.502,0-4.77-1.015-6.414-2.662L33.681,94.32c0.349,0.35,0.813,0.529,1.282,0.529
		c0.189,0,0.388-0.029,0.574-0.09l43.552-14.519c0.274-0.097,0.515-0.241,0.71-0.438l-9.387-9.393
		C68.771,72.061,66.5,73.074,64,73.074z"/>
	<path fill="#FCE431" d="M54.925,64c0-2.501,1.018-4.769,2.661-6.414l-9.389-9.389c-0.194,0.199-0.349,0.438-0.437,0.711
		L33.243,92.463c-0.219,0.647-0.046,1.364,0.438,1.856l23.905-23.908C55.942,68.771,54.925,66.5,54.925,64z"/>
	<path fill="#828282" d="M70.412,57.586c1.646,1.642,2.664,3.913,2.664,6.414c0,2.5-1.018,4.771-2.664,6.412l9.393,9.394
		c0.195-0.195,0.342-0.44,0.438-0.714l14.514-43.553c0.221-0.651,0.05-1.372-0.436-1.855L70.412,57.586z"/>
	<path fill="#ADADAD" d="M64,54.927c2.5,0,4.771,1.015,6.412,2.659L94.32,33.681c-0.489-0.484-1.207-0.656-1.857-0.436
		L48.911,47.761c-0.273,0.092-0.516,0.242-0.711,0.44l9.389,9.388C59.23,55.941,61.498,54.927,64,54.927z"/>
	<path fill="#FFFFFF" d="M70.412,57.586c-1.641-1.645-3.907-2.659-6.412-2.659c-2.502,0-4.77,1.015-6.414,2.659
		c-1.643,1.642-2.661,3.913-2.661,6.414c0,2.5,1.018,4.771,2.661,6.412c1.643,1.647,3.912,2.662,6.414,2.662
		c2.5,0,4.771-1.015,6.412-2.662c1.646-1.641,2.664-3.907,2.664-6.412C73.076,61.499,72.061,59.231,70.412,57.586z"/>
</g>
</svg>
