<svg xmlns="http://www.w3.org/2000/svg" viewBox="0 0 64 64" width="64" height="64"><title>podcast mic</title><g class="nc-icon-wrapper" stroke-linecap="round" stroke-linejoin="round" stroke-width="3" transform="translate(0.5 0.5)" fill="#f2bf24" stroke="#f2bf24"><rect x="22" y="4" width="20" height="44" rx="6" fill="none" stroke="#f2bf24" stroke-miterlimit="10"/><line x1="22" y1="14" x2="26" y2="14" fill="none" stroke="#f2bf24" stroke-miterlimit="10"/><line x1="38" y1="14" x2="42" y2="14" fill="none" stroke="#f2bf24" stroke-miterlimit="10"/><line x1="22" y1="30" x2="26" y2="30" fill="none" stroke="#f2bf24" stroke-miterlimit="10"/><line x1="38" y1="30" x2="42" y2="30" fill="none" stroke="#f2bf24" stroke-miterlimit="10"/><line x1="22" y1="38" x2="26" y2="38" fill="none" stroke="#f2bf24" stroke-miterlimit="10"/><line x1="38" y1="38" x2="42" y2="38" fill="none" stroke="#f2bf24" stroke-miterlimit="10"/><line x1="22" y1="22" x2="26" y2="22" fill="none" stroke="#f2bf24" stroke-miterlimit="10"/><line x1="38" y1="22" x2="42" y2="22" fill="none" stroke="#f2bf24" stroke-miterlimit="10"/><line x1="36" y1="48" x2="36" y2="60" fill="none" stroke="#f2bf24" stroke-miterlimit="10"/><line x1="28" y1="48" x2="28" y2="60" fill="none" stroke="#f2bf24" stroke-miterlimit="10"/><path d="M13.515,17.515a12,12,0,0,0,0,16.97" fill="none" stroke-miterlimit="10" data-color="color-2"/><path d="M7.858,11.858a20,20,0,0,0,0,28.284" fill="none" stroke-miterlimit="10" data-color="color-2"/><path d="M50.485,17.523a12,12,0,0,1,0,16.971" fill="none" stroke-miterlimit="10" data-color="color-2"/><path d="M56.142,11.867a20,20,0,0,1,0,28.284" fill="none" stroke-miterlimit="10" data-color="color-2"/></g></svg>