<svg xmlns="http://www.w3.org/2000/svg" viewBox="0 0 48 48" width="96" height="96"><title>bath tub</title><g class="nc-icon-wrapper"><path d="M37,25H35V8A5,5,0,0,0,25,8v3H23V8A7,7,0,0,1,37,8Z" fill="#b3b3b3"/><polygon points="12 47 9 47 11 41 14 41 12 47" fill="#b3b3b3"/><polygon points="36 47 39 47 37 41 34 41 36 47" fill="#b3b3b3"/><path d="M45,27H3a1,1,0,0,0-1,1v8a7.009,7.009,0,0,0,7,7H39a7.009,7.009,0,0,0,7-7V28A1,1,0,0,0,45,27Z" fill="#e6e6e6"/><path d="M24,9a7.009,7.009,0,0,0-7,7,1,1,0,0,0,1,1H30a1,1,0,0,0,1-1A7.009,7.009,0,0,0,24,9Z" fill="#e6e6e6"/><circle cx="20" cy="20" r="1" fill="#47b0ea"/><circle cx="24" cy="23" r="1" fill="#47b0ea"/><circle cx="28" cy="20" r="1" fill="#47b0ea"/></g></svg>